<svg xmlns="http://www.w3.org/2000/svg" xmlns:xlink="http://www.w3.org/1999/xlink"><defs><symbol class="h-6 w-6" fill="none" viewBox="0 0 24 24" stroke="currentColor" stroke-width="2" id="arrow-down"><path stroke-linecap="round" stroke-linejoin="round" d="m17 13-5 5m0 0-5-5m5 5V6" /></symbol><symbol fill="none" viewBox="0 0 24 24" stroke="currentColor" stroke-width="2" id="arrow-left"><path stroke-linecap="round" stroke-linejoin="round" d="m10 19-7-7m0 0 7-7m-7 7h18" /></symbol><symbol aria-hidden="true" fill="currentColor" viewBox="0 0 20 20" id="close"><path fill-rule="evenodd" d="M4.293 4.293a1 1 0 0 1 1.414 0L10 8.586l4.293-4.293a1 1 0 1 1 1.414 1.414L11.414 10l4.293 4.293a1 1 0 0 1-1.414 1.414L10 11.414l-4.293 4.293a1 1 0 0 1-1.414-1.414L8.586 10 4.293 5.707a1 1 0 0 1 0-1.414z" clip-rule="evenodd" /></symbol><symbol class="h-6 w-6" fill="none" viewBox="0 0 24 24" stroke="currentColor" stroke-width="2" id="error"><path stroke-linecap="round" stroke-linejoin="round" d="M12 8v4m0 4h.01M21 12a9 9 0 1 1-18 0 9 9 0 0 1 18 0z" /></symbol><symbol fill="none" viewBox="0 0 24 24" stroke="currentColor" stroke-width="2" id="export"><path stroke-linecap="round" stroke-linejoin="round" d="M4 16v1a3 3 0 0 0 3 3h10a3 3 0 0 0 3-3v-1m-4-4-4 4m0 0-4-4m4 4V4" /></symbol><symbol class="h-6 w-6" fill="none" viewBox="0 0 24 24" stroke="currentColor" stroke-width="2" id="info"><path stroke-linecap="round" stroke-linejoin="round" d="M13 16h-1v-4h-1m1-4h.01M21 12a9 9 0 1 1-18 0 9 9 0 0 1 18 0z" /></symbol><symbol fill="none" viewBox="0 0 24 24" stroke="currentColor" stroke-width="2" id="lock"><path stroke-linecap="round" stroke-linejoin="round" d="M12 15v2m-6 4h12a2 2 0 0 0 2-2v-6a2 2 0 0 0-2-2H6a2 2 0 0 0-2 2v6a2 2 0 0 0 2 2zm10-10V7a4 4 0 0 0-8 0v4h8z" /></symbol><symbol fill="none" viewBox="0 0 24 24" stroke="currentColor" stroke-width="2" id="plus"><path stroke-linecap="round" stroke-linejoin="round" d="M12 9v3m0 0v3m0-3h3m-3 0H9m12 0a9 9 0 1 1-18 0 9 9 0 0 1 18 0z" /></symbol><symbol class="h-6 w-6" fill="none" viewBox="0 0 24 24" stroke="currentColor" stroke-width="2" id="success"><path stroke-linecap="round" stroke-linejoin="round" d="m9 12 2 2 4-4m6 2a9 9 0 1 1-18 0 9 9 0 0 1 18 0z" /></symbol><symbol fill="none" viewBox="0 0 24 24" stroke="currentColor" stroke-width="2" id="unlocked"><path stroke-linecap="round" stroke-linejoin="round" d="M8 11V7a4 4 0 1 1 8 0m-4 8v2m-6 4h12a2 2 0 0 0 2-2v-6a2 2 0 0 0-2-2H6a2 2 0 0 0-2 2v6a2 2 0 0 0 2 2z" /></symbol><symbol class="h-6 w-6" fill="none" viewBox="0 0 24 24" stroke="currentColor" stroke-width="2" id="upload"><path stroke-linecap="round" stroke-linejoin="round" d="M4 16v1a3 3 0 0 0 3 3h10a3 3 0 0 0 3-3v-1m-4-8-4-4m0 0L8 8m4-4v12" /></symbol><symbol aria-hidden="true" fill="none" stroke="currentColor" viewBox="0 0 24 24" id="warning"><path stroke-linecap="round" stroke-linejoin="round" stroke-width="2" d="M12 8v4m0 4h.01M21 12a9 9 0 1 1-18 0 9 9 0 0 1 18 0z" /></symbol></defs></svg>